<?xml version="1.0" encoding="UTF-8"?><svg id="Logo_B_W_Reverse" xmlns="http://www.w3.org/2000/svg" xmlns:xlink="http://www.w3.org/1999/xlink" viewBox="0 0 2048 1796"><defs><clipPath id="clippath"><path d="M1464.45,72.33h-880.9c-22.43,0-43.16,11.97-54.37,31.39L88.73,866.61c-11.22,19.43-11.22,43.36,0,62.79l440.45,762.88c11.22,19.43,31.94,31.39,54.37,31.39h880.9c22.43,0,43.16-11.97,54.37-31.39l440.45-762.88c11.22-19.43,11.22-43.36,0-62.79L1518.82,103.73c-11.22-19.43-31.94-31.39-54.37-31.39Z" fill="#fff"/></clipPath></defs><path d="M1496.14,19.63h-944.29c-21.65,0-41.65,11.55-52.47,30.29L27.24,867.71c-10.82,18.75-10.82,41.84,0,60.59l472.14,817.78c10.82,18.75,30.83,30.29,52.47,30.29h944.29c21.65,0,41.65-11.55,52.47-30.29l472.14-817.78c10.82-18.75,10.82-41.84,0-60.59L1548.62,49.93c-10.82-18.75-30.83-30.29-52.47-30.29Z" stroke="#fff" stroke-miterlimit="10" stroke-width="36.61"/><path d="M1464.45,72.33h-880.9c-22.43,0-43.16,11.97-54.37,31.39L88.73,866.61c-11.22,19.43-11.22,43.36,0,62.79l440.45,762.88c11.22,19.43,31.94,31.39,54.37,31.39h880.9c22.43,0,43.16-11.97,54.37-31.39l440.45-762.88c11.22-19.43,11.22-43.36,0-62.79L1518.82,103.73c-11.22-19.43-31.94-31.39-54.37-31.39Z" fill="#fff"/><g clip-path="url(#clippath)"><polygon points="-27.01 898 217.5 898 237.75 855.52 254.95 898 301.01 1036.2 344.03 898 363.77 733.55 394.64 898 418.43 898 425.51 934.47 450.82 898 1577.15 898 1600.18 865.9 1608.78 898 1661.42 1042.02 1698.87 898 1723.67 760.63 1767.7 898 1786.93 941.56 1814.01 898 2075.01 898 2075.01 1808.2 -27.01 1808.2 -27.01 898" fill="#fff"/></g><path d="M947.6,188.59h-35v109.86h-38.89v-109.86h-35.05v-36.26h108.94v36.26Z"/><path d="M1084.79,152.32v146.13h-38.69v-55.03h-43.43v55.03h-38.79v-146.13h38.79v54.85h43.43v-54.85h38.69Z"/><path d="M1148.27,188.4v20.39h46.41v32.37h-46.41v20.94h56.39v36.35h-94.72v-146.13h94.72v36.08h-56.39Z"/><path d="M446.03,360.81h55.2c30.1,0,55.22,22.67,55.22,51.22s-24.57,51.85-55.22,51.85h-16.41v43.06h-38.79v-146.13ZM518.99,412.21c0-8.88-7.43-15.58-17.77-15.58h-16.41v31.45l16.41.1c10.41.08,17.77-6.98,17.77-15.96Z"/><path d="M572.71,360.81h38.79v146.13h-38.79v-146.13Z"/><path d="M630.41,433.87c0-43.23,34.98-76.5,80.49-76.5,18.86.27,39.06,8.52,54.01,22.11l-22.28,28.64c-8.98-8.16-20.85-13.51-31.63-13.51-22.5,0-41.24,17.14-41.24,39.53s19.56,39.34,40.42,39.34c12.26,0,23.21-5.8,32.65-14.24l22.09,29.47c-13.93,12.68-32.53,21.48-54.74,21.48-41.24,0-79.76-30.46-79.76-76.33Z"/><path d="M856.86,506.94l-36.99-55.56v55.56h-38.69v-146.13h38.69v54.48l33.89-54.48h44.62l-44.79,71.26,50.32,74.87h-47.04Z"/><path d="M1012.31,470.5v36.43h-94.72v-146.13h38.79v109.69h55.93Z"/><path d="M1066.97,396.89v20.39h46.41v32.37h-46.41v20.94h56.36v36.35h-94.72v-146.13h94.72v36.08h-56.36Z"/><path d="M1255.77,462.33c0,23.12-19.42,44.6-48.69,44.6h-62.36v-146.13h48.04c26.46,0,45.88,17.87,45.88,37.99,0,15.05-9.98,25.83-15.97,25.83,15.58,0,33.11,15.68,33.11,37.71ZM1191.59,394.54h-9.52v22.93h9.22c8.45,0,14.78-4.16,14.78-11.69,0-7.08-6.17-11.24-14.49-11.24ZM1218.59,457.71c0-8.52-6.17-13.68-17.14-13.68l-19.37-.1v27.74h19.13c8.88,0,17.38-4.36,17.38-13.97Z"/><path d="M1362.94,489.9h-54.57l-7.45,17.04h-42.41l67.89-147.94h18.4l67.99,147.94h-42.5l-7.35-17.04ZM1350.61,461.52l-14.95-34.63-15.05,34.63h30Z"/><path d="M1521.81,470.5v36.43h-94.72v-146.13h38.79v109.69h55.93Z"/><path d="M1632.84,470.5v36.43h-94.72v-146.13h38.79v109.69h55.93Z"/><path d="M916.82,1448.04v146.13h-38.69v-55.03h-43.43v55.03h-38.79v-146.13h38.79v54.85h43.43v-54.85h38.69Z"/><path d="M941.94,1448.04h38.79v146.13h-38.79v-146.13Z"/><path d="M1147.22,1448.04l-67.34,147.67h-17.57l-67.09-147.67h41.97l33.72,79.14,33.81-79.14h42.5Z"/><path d="M1199.9,1484.12v20.39h46.41v32.37h-46.41v20.94h56.36v36.35h-94.72v-146.13h94.72v36.08h-56.36Z"/><path d="M1025.59,1349.43c-3.78,0-7.34-1.47-10.03-4.14-180.12-179.05-376.08-374.46-386.43-386.45-20.35-25.16-34.92-53.65-43.32-84.69-8.83-32.64-10.35-66.59-4.52-100.91,7.98-47,30.24-89.75,64.35-123.62,34.11-33.86,77.02-55.82,124.09-63.49,12.96-2.11,26.07-3.18,38.96-3.18,41.13,0,81.49,10.95,116.73,31.67,34.22,20.12,62.87,48.9,82.86,83.23l15.82,27.16,15.82-27.16c19.83-34.05,48.21-62.67,82.07-82.76,34.85-20.68,74.81-31.79,115.55-32.13.64,0,1.29,0,1.93,0,61.21,0,119.05,24.11,162.88,67.89,43.85,43.8,68,101.67,68.02,162.93,0,61.77-24.07,119.83-67.81,163.46l-366.92,368.04c-2.67,2.67-6.24,4.15-10.04,4.15Z" fill="#fff"/><path d="M1239.47,601.26c28.43,0,56.09,5.64,82.23,16.76,25.3,10.77,48.09,26.17,67.71,45.78,19.64,19.62,35.06,42.39,45.84,67.68,11.15,26.14,16.8,53.84,16.8,82.3,0,28.76-5.63,56.64-16.73,82.86-10.74,25.34-26.11,48.1-45.7,67.65l-.03.03-.03.03-363.98,365.09c-220.98-219.68-370.6-369.28-382.5-382.46-18.59-23.08-31.91-49.19-39.59-77.61-8.13-30.07-9.53-61.38-4.14-93.06,3.68-21.65,10.73-42.5,20.97-61.98,10.02-19.07,22.88-36.46,38.24-51.71,15.36-15.24,32.85-27.99,51.99-37.87,19.56-10.1,40.47-17.01,62.15-20.54,11.99-1.95,24.1-2.94,36.03-2.94,37.86,0,75.01,10.08,107.44,29.15,31.51,18.53,57.9,45.04,76.32,76.66l31.63,54.32,31.64-54.32c18.26-31.36,44.41-57.72,75.6-76.23,32.07-19.03,68.85-29.26,106.36-29.57.59,0,1.19,0,1.77,0M808.69,564.66c-13.73,0-27.73,1.11-41.9,3.42-103.64,16.89-185.96,98.58-203.55,202.11-12.92,76.08,8.74,147.17,51.73,200.27h0c9.42,11.64,302.5,303.14,387.68,387.82,6.35,6.31,14.64,9.46,22.93,9.46s16.65-3.18,23.01-9.53l366.89-368.01c45.22-45.11,73.2-107.5,73.19-176.42-.02-136.84-112.6-249.12-249.2-249.12-.69,0-1.39,0-2.08,0-91.08.76-170.45,50.43-213.29,123.99-43.17-74.13-123.43-124-215.41-124h0Z"/><circle cx="1024" cy="898" r="209.38"/><circle cx="1024" cy="898" r="31.91" fill="#fff"/><ellipse cx="1024" cy="716.27" rx="25.52" ry="11.93" fill="#fff"/><ellipse cx="866.62" cy="807.13" rx="25.52" ry="11.93" transform="translate(-265.69 1154.08) rotate(-60)" fill="#fff"/><ellipse cx="866.62" cy="988.87" rx="11.93" ry="25.52" transform="translate(-378.33 565.79) rotate(-30)" fill="#fff"/><ellipse cx="1024" cy="1079.73" rx="25.52" ry="11.93" fill="#fff"/><ellipse cx="1181.38" cy="988.87" rx="25.52" ry="11.93" transform="translate(-265.69 1517.54) rotate(-60)" fill="#fff"/><ellipse cx="1181.38" cy="807.13" rx="11.93" ry="25.52" transform="translate(-245.29 698.83) rotate(-30)" fill="#fff"/><ellipse cx="1138.49" cy="898" rx="22.01" ry="28.08" fill="#fff"/><ellipse cx="1081.25" cy="798.85" rx="22.01" ry="28.08" transform="translate(-151.2 1335.81) rotate(-60)" fill="#fff"/><ellipse cx="966.75" cy="798.85" rx="28.08" ry="22.01" transform="translate(-269.9 590.4) rotate(-30)" fill="#fff"/><ellipse cx="909.51" cy="898" rx="22.01" ry="28.08" fill="#fff"/><ellipse cx="966.75" cy="997.15" rx="22.01" ry="28.08" transform="translate(-380.18 1335.81) rotate(-60)" fill="#fff"/><ellipse cx="1081.25" cy="997.15" rx="28.08" ry="22.01" transform="translate(-353.72 674.22) rotate(-30)" fill="#fff"/><polyline points="590.77 897.83 460.52 897.74 419.84 994.91 360.8 623.23 308.66 1172.43 247.52 813.38 208.97 897.83 66.05 897.83" fill="none" stroke="#000" stroke-linejoin="round" stroke-width="36.61"/><polyline points="1983.57 897.83 1818.15 897.83 1779.02 1000.05 1719.98 628.37 1667.84 1177.57 1606.7 818.52 1568.15 897.86 1457.22 897.86" fill="none" stroke="#000" stroke-linejoin="round" stroke-width="36.61"/></svg>